<svg xmlns="http://www.w3.org/2000/svg" xmlns:xlink="http://www.w3.org/1999/xlink" width="64" zoomAndPan="magnify" viewBox="0 0 48 48" height="64" preserveAspectRatio="xMidYMid meet" version="1.2"><defs><clipPath id="92256d8fc8"><path d="M 0.488281 0 L 47.507812 0 L 47.507812 47.019531 L 0.488281 47.019531 Z M 0.488281 0 "/></clipPath><clipPath id="5a3ace4d54"><path d="M 7.628906 14.640625 L 40.371094 14.640625 L 40.371094 32.445312 L 7.628906 32.445312 Z M 7.628906 14.640625 "/></clipPath><clipPath id="f489e6d6b9"><path d="M 7.632812 14.640625 L 40.066406 14.640625 L 40.066406 32.273438 L 7.632812 32.273438 Z M 7.632812 14.640625 "/></clipPath><clipPath id="a9512d8416"><path d="M 7.628906 14.632812 L 40.371094 14.632812 L 40.371094 26.808594 L 7.628906 26.808594 Z M 7.628906 14.632812 "/></clipPath></defs><g id="0b11e41f9f"><g clip-rule="nonzero" clip-path="url(#92256d8fc8)"><path style=" stroke:none;fill-rule:nonzero;fill:#ffffff;fill-opacity:1;" d="M 0.488281 0 L 47.511719 0 L 47.511719 47.019531 L 0.488281 47.019531 Z M 0.488281 0 "/><path style=" stroke:none;fill-rule:nonzero;fill:#101010;fill-opacity:1;" d="M 0.488281 0 L 47.511719 0 L 47.511719 47.019531 L 0.488281 47.019531 Z M 0.488281 0 "/></g><g clip-rule="nonzero" clip-path="url(#5a3ace4d54)"><path style=" stroke:none;fill-rule:nonzero;fill:#101010;fill-opacity:1;" d="M 7.628906 14.640625 L 40.378906 14.640625 L 40.378906 32.445312 L 7.628906 32.445312 Z M 7.628906 14.640625 "/></g><g clip-rule="nonzero" clip-path="url(#f489e6d6b9)"><path style="fill:none;stroke-width:2;stroke-linecap:butt;stroke-linejoin:miter;stroke:#fcfbf9;stroke-opacity:1;stroke-miterlimit:4;" d="M -0.00130605 -0.00249017 L 44.546789 -0.00249017 L 44.546789 24.216479 L -0.00130605 24.216479 Z M -0.00130605 -0.00249017 " transform="matrix(0.728058,0,0,0.728058,7.633763,14.642438)"/></g><g clip-rule="nonzero" clip-path="url(#a9512d8416)"><path style=" stroke:none;fill-rule:nonzero;fill:#fcfbf9;fill-opacity:1;" d="M 7.628906 14.632812 L 40.355469 14.632812 L 40.355469 26.808594 L 7.628906 26.808594 Z M 7.628906 14.632812 "/></g><g style="fill:#101010;fill-opacity:1;"><g transform="translate(14.977651, 25.797655)"><path style="stroke:none" d="M 9.15625 -8.765625 L 9.15625 -8.53125 C 8.875 -8.457031 8.5625 -8.320312 8.21875 -8.125 C 7.875 -7.925781 7.507812 -7.609375 7.125 -7.171875 L 4.84375 -4.578125 L 5.84375 -5.890625 L 8.78125 -1 C 8.894531 -0.832031 9.003906 -0.6875 9.109375 -0.5625 C 9.210938 -0.445312 9.359375 -0.34375 9.546875 -0.25 L 9.546875 0 C 9.191406 -0.0195312 8.816406 -0.03125 8.421875 -0.03125 C 8.035156 -0.03125 7.664062 -0.03125 7.3125 -0.03125 C 7.125 -0.03125 6.890625 -0.03125 6.609375 -0.03125 C 6.328125 -0.03125 5.96875 -0.0195312 5.53125 0 L 5.53125 -0.25 C 5.925781 -0.257812 6.15625 -0.300781 6.21875 -0.375 C 6.28125 -0.457031 6.25 -0.601562 6.125 -0.8125 L 4.328125 -3.84375 C 4.242188 -3.988281 4.164062 -4.097656 4.09375 -4.171875 C 4.03125 -4.242188 3.96875 -4.296875 3.90625 -4.328125 C 3.84375 -4.367188 3.765625 -4.394531 3.671875 -4.40625 L 3.671875 -4.65625 C 4.035156 -4.675781 4.375 -4.796875 4.6875 -5.015625 C 5.007812 -5.242188 5.398438 -5.617188 5.859375 -6.140625 L 6.28125 -6.609375 C 6.625 -6.992188 6.804688 -7.328125 6.828125 -7.609375 C 6.847656 -7.898438 6.757812 -8.125 6.5625 -8.28125 C 6.375 -8.445312 6.125 -8.53125 5.8125 -8.53125 L 5.8125 -8.765625 C 6.039062 -8.765625 6.253906 -8.757812 6.453125 -8.75 C 6.660156 -8.75 6.878906 -8.742188 7.109375 -8.734375 C 7.335938 -8.734375 7.601562 -8.734375 7.90625 -8.734375 C 8.164062 -8.734375 8.394531 -8.738281 8.59375 -8.75 C 8.800781 -8.757812 8.988281 -8.765625 9.15625 -8.765625 Z M 4.625 -8.765625 L 4.625 -8.53125 C 4.375 -8.519531 4.179688 -8.484375 4.046875 -8.421875 C 3.921875 -8.367188 3.835938 -8.269531 3.796875 -8.125 C 3.753906 -7.988281 3.734375 -7.765625 3.734375 -7.453125 L 3.734375 -1.3125 C 3.734375 -1.019531 3.753906 -0.796875 3.796875 -0.640625 C 3.847656 -0.492188 3.9375 -0.394531 4.0625 -0.34375 C 4.1875 -0.289062 4.375 -0.257812 4.625 -0.25 L 4.625 0 C 4.382812 -0.0195312 4.078125 -0.03125 3.703125 -0.03125 C 3.328125 -0.03125 2.941406 -0.03125 2.546875 -0.03125 C 2.109375 -0.03125 1.691406 -0.03125 1.296875 -0.03125 C 0.898438 -0.03125 0.582031 -0.0195312 0.34375 0 L 0.34375 -0.25 C 0.601562 -0.257812 0.796875 -0.289062 0.921875 -0.34375 C 1.046875 -0.394531 1.128906 -0.492188 1.171875 -0.640625 C 1.210938 -0.796875 1.234375 -1.019531 1.234375 -1.3125 L 1.234375 -7.453125 C 1.234375 -7.765625 1.210938 -7.988281 1.171875 -8.125 C 1.128906 -8.269531 1.039062 -8.367188 0.90625 -8.421875 C 0.78125 -8.484375 0.59375 -8.519531 0.34375 -8.53125 L 0.34375 -8.765625 C 0.582031 -8.765625 0.898438 -8.757812 1.296875 -8.75 C 1.691406 -8.738281 2.109375 -8.734375 2.546875 -8.734375 C 2.941406 -8.734375 3.328125 -8.738281 3.703125 -8.75 C 4.078125 -8.757812 4.382812 -8.765625 4.625 -8.765625 Z M 4.625 -8.765625 "/></g></g><g style="fill:#101010;fill-opacity:1;"><g transform="translate(23.948945, 25.797655)"><path style="stroke:none" d="M 8.765625 -8.765625 L 8.765625 -8.53125 C 8.523438 -8.476562 8.335938 -8.390625 8.203125 -8.265625 C 8.078125 -8.140625 7.992188 -7.945312 7.953125 -7.6875 C 7.910156 -7.425781 7.890625 -7.0625 7.890625 -6.59375 L 7.890625 0 C 7.765625 -0.0195312 7.628906 -0.03125 7.484375 -0.03125 C 7.335938 -0.03125 7.1875 -0.0195312 7.03125 0 L 1.53125 -6 L 1.53125 -2.421875 C 1.53125 -1.867188 1.550781 -1.445312 1.59375 -1.15625 C 1.644531 -0.863281 1.757812 -0.648438 1.9375 -0.515625 C 2.113281 -0.390625 2.394531 -0.300781 2.78125 -0.25 L 2.78125 0 C 2.625 -0.0195312 2.410156 -0.03125 2.140625 -0.03125 C 1.878906 -0.03125 1.632812 -0.03125 1.40625 -0.03125 C 1.21875 -0.03125 1.03125 -0.03125 0.84375 -0.03125 C 0.65625 -0.03125 0.5 -0.0195312 0.375 0 L 0.375 -0.25 C 0.625 -0.300781 0.8125 -0.382812 0.9375 -0.5 C 1.0625 -0.625 1.144531 -0.816406 1.1875 -1.078125 C 1.226562 -1.347656 1.25 -1.71875 1.25 -2.1875 L 1.25 -7.453125 C 1.25 -7.765625 1.226562 -7.988281 1.1875 -8.125 C 1.144531 -8.269531 1.0625 -8.367188 0.9375 -8.421875 C 0.8125 -8.484375 0.625 -8.519531 0.375 -8.53125 L 0.375 -8.765625 C 0.5 -8.765625 0.65625 -8.757812 0.84375 -8.75 C 1.03125 -8.738281 1.21875 -8.734375 1.40625 -8.734375 C 1.601562 -8.734375 1.800781 -8.738281 2 -8.75 C 2.195312 -8.757812 2.378906 -8.765625 2.546875 -8.765625 L 7.609375 -3.421875 L 7.609375 -6.34375 C 7.609375 -6.894531 7.582031 -7.316406 7.53125 -7.609375 C 7.488281 -7.898438 7.378906 -8.113281 7.203125 -8.25 C 7.035156 -8.382812 6.753906 -8.476562 6.359375 -8.53125 L 6.359375 -8.765625 C 6.523438 -8.765625 6.738281 -8.757812 7 -8.75 C 7.257812 -8.738281 7.507812 -8.734375 7.75 -8.734375 C 7.9375 -8.734375 8.125 -8.738281 8.3125 -8.75 C 8.5 -8.757812 8.648438 -8.765625 8.765625 -8.765625 Z M 8.765625 -8.765625 "/></g></g><g style="fill:#fcfbf9;fill-opacity:1;"><g transform="translate(10.814475, 30.414769)"><path style="stroke:none" d="M 0.140625 -2.15625 L -0.078125 -2.15625 L -0.078125 -2.265625 L 0.875 -2.265625 L 0.875 -2.15625 L 0.59375 -2.15625 L 1.140625 -0.5 L 1.71875 -2.265625 L 1.828125 -2.265625 L 2.46875 -0.515625 L 3.015625 -2.15625 L 2.734375 -2.15625 L 2.734375 -2.265625 L 3.390625 -2.265625 L 3.390625 -2.15625 L 3.171875 -2.15625 L 2.4375 0.03125 L 2.296875 0.03125 L 1.65625 -1.609375 L 1.09375 0.03125 L 0.96875 0.03125 Z M 0.140625 -2.15625 "/></g></g><g style="fill:#fcfbf9;fill-opacity:1;"><g transform="translate(14.475941, 30.414769)"><path style="stroke:none" d="M 0.109375 -0.109375 L 0.40625 -0.109375 L 0.40625 -2.15625 L 0.109375 -2.15625 L 0.109375 -2.265625 L 2.015625 -2.265625 L 2.015625 -1.625 L 1.90625 -1.625 C 1.894531 -1.695312 1.882812 -1.765625 1.875 -1.828125 C 1.875 -1.898438 1.859375 -1.957031 1.828125 -2 C 1.765625 -2.09375 1.648438 -2.144531 1.484375 -2.15625 L 0.796875 -2.15625 L 0.796875 -1.21875 L 1.171875 -1.21875 C 1.253906 -1.21875 1.316406 -1.226562 1.359375 -1.25 C 1.410156 -1.28125 1.441406 -1.332031 1.453125 -1.40625 C 1.453125 -1.425781 1.453125 -1.445312 1.453125 -1.46875 C 1.453125 -1.488281 1.453125 -1.507812 1.453125 -1.53125 L 1.578125 -1.53125 L 1.578125 -0.765625 L 1.453125 -0.765625 C 1.453125 -0.785156 1.453125 -0.8125 1.453125 -0.84375 C 1.453125 -0.875 1.453125 -0.898438 1.453125 -0.921875 C 1.441406 -0.984375 1.410156 -1.03125 1.359375 -1.0625 C 1.316406 -1.09375 1.253906 -1.109375 1.171875 -1.109375 L 0.796875 -1.109375 L 0.796875 -0.109375 L 1.4375 -0.109375 C 1.695312 -0.109375 1.851562 -0.226562 1.90625 -0.46875 C 1.925781 -0.539062 1.9375 -0.613281 1.9375 -0.6875 L 2.046875 -0.6875 L 2.046875 0 L 0.109375 0 Z M 0.109375 -0.109375 "/></g></g><g style="fill:#fcfbf9;fill-opacity:1;"><g transform="translate(17.124488, 30.414769)"><path style="stroke:none" d="M 0.15625 -0.109375 L 0.40625 -0.109375 L 0.40625 -2.15625 L 0.15625 -2.15625 L 0.15625 -2.265625 L 1.265625 -2.265625 C 1.503906 -2.265625 1.675781 -2.210938 1.78125 -2.109375 C 1.894531 -2.003906 1.953125 -1.867188 1.953125 -1.703125 C 1.953125 -1.503906 1.863281 -1.359375 1.6875 -1.265625 C 1.632812 -1.234375 1.578125 -1.210938 1.515625 -1.203125 C 1.710938 -1.179688 1.859375 -1.117188 1.953125 -1.015625 C 2.054688 -0.921875 2.109375 -0.800781 2.109375 -0.65625 C 2.109375 -0.445312 2.035156 -0.285156 1.890625 -0.171875 C 1.742188 -0.0546875 1.535156 0 1.265625 0 L 0.15625 0 Z M 1.171875 -1.234375 C 1.378906 -1.234375 1.503906 -1.320312 1.546875 -1.5 C 1.566406 -1.5625 1.578125 -1.625 1.578125 -1.6875 C 1.578125 -1.832031 1.550781 -1.941406 1.5 -2.015625 C 1.4375 -2.109375 1.3125 -2.15625 1.125 -2.15625 L 0.8125 -2.15625 L 0.8125 -1.234375 Z M 1.15625 -0.109375 C 1.332031 -0.109375 1.46875 -0.148438 1.5625 -0.234375 C 1.65625 -0.328125 1.703125 -0.453125 1.703125 -0.609375 C 1.703125 -0.835938 1.613281 -0.992188 1.4375 -1.078125 C 1.363281 -1.109375 1.28125 -1.125 1.1875 -1.125 L 0.8125 -1.125 L 0.8125 -0.109375 Z M 1.15625 -0.109375 "/></g></g><g style="fill:#fcfbf9;fill-opacity:1;"><g transform="translate(19.771555, 30.414769)"><path style="stroke:none" d=""/></g></g><g style="fill:#fcfbf9;fill-opacity:1;"><g transform="translate(21.158758, 30.414769)"><path style="stroke:none" d="M 0.03125 -0.109375 L 0.1875 -0.109375 L 1.03125 -2.265625 L 1.203125 -2.265625 L 2.09375 -0.109375 L 2.234375 -0.109375 L 2.234375 0 L 1.4375 0 L 1.4375 -0.109375 L 1.65625 -0.109375 L 1.4375 -0.625 L 0.546875 -0.625 L 0.34375 -0.109375 L 0.609375 -0.109375 L 0.609375 0 L 0.03125 0 Z M 1.390625 -0.75 L 0.96875 -1.765625 L 0.59375 -0.75 Z M 1.390625 -0.75 "/></g></g><g style="fill:#fcfbf9;fill-opacity:1;"><g transform="translate(23.805825, 30.414769)"><path style="stroke:none" d="M 1.328125 -2.296875 C 1.660156 -2.296875 1.898438 -2.234375 2.046875 -2.109375 C 2.066406 -2.128906 2.085938 -2.179688 2.109375 -2.265625 L 2.234375 -2.265625 L 2.234375 -1.640625 L 2.109375 -1.640625 C 2.054688 -1.816406 1.960938 -1.945312 1.828125 -2.03125 C 1.703125 -2.125 1.546875 -2.171875 1.359375 -2.171875 C 1.015625 -2.171875 0.785156 -1.992188 0.671875 -1.640625 C 0.597656 -1.421875 0.578125 -1.171875 0.609375 -0.890625 C 0.660156 -0.492188 0.828125 -0.242188 1.109375 -0.140625 C 1.191406 -0.109375 1.273438 -0.09375 1.359375 -0.09375 C 1.453125 -0.09375 1.53125 -0.0976562 1.59375 -0.109375 C 1.65625 -0.128906 1.707031 -0.148438 1.75 -0.171875 C 1.800781 -0.191406 1.835938 -0.210938 1.859375 -0.234375 C 1.890625 -0.265625 1.90625 -0.289062 1.90625 -0.3125 L 1.90625 -0.890625 L 1.515625 -0.890625 L 1.515625 -1 L 2.453125 -1 L 2.453125 -0.890625 L 2.265625 -0.890625 L 2.265625 -0.28125 C 2.203125 -0.195312 2.082031 -0.125 1.90625 -0.0625 C 1.738281 0 1.5625 0.03125 1.375 0.03125 C 1.1875 0.03125 1.015625 0 0.859375 -0.0625 C 0.710938 -0.125 0.585938 -0.207031 0.484375 -0.3125 C 0.265625 -0.53125 0.15625 -0.800781 0.15625 -1.125 C 0.15625 -1.445312 0.265625 -1.71875 0.484375 -1.9375 C 0.628906 -2.09375 0.804688 -2.195312 1.015625 -2.25 C 1.128906 -2.28125 1.234375 -2.296875 1.328125 -2.296875 Z M 1.328125 -2.296875 "/></g></g><g style="fill:#fcfbf9;fill-opacity:1;"><g transform="translate(26.708711, 30.414769)"><path style="stroke:none" d="M 0.109375 -0.109375 L 0.40625 -0.109375 L 0.40625 -2.15625 L 0.109375 -2.15625 L 0.109375 -2.265625 L 2.015625 -2.265625 L 2.015625 -1.625 L 1.90625 -1.625 C 1.894531 -1.695312 1.882812 -1.765625 1.875 -1.828125 C 1.875 -1.898438 1.859375 -1.957031 1.828125 -2 C 1.765625 -2.09375 1.648438 -2.144531 1.484375 -2.15625 L 0.796875 -2.15625 L 0.796875 -1.21875 L 1.171875 -1.21875 C 1.253906 -1.21875 1.316406 -1.226562 1.359375 -1.25 C 1.410156 -1.28125 1.441406 -1.332031 1.453125 -1.40625 C 1.453125 -1.425781 1.453125 -1.445312 1.453125 -1.46875 C 1.453125 -1.488281 1.453125 -1.507812 1.453125 -1.53125 L 1.578125 -1.53125 L 1.578125 -0.765625 L 1.453125 -0.765625 C 1.453125 -0.785156 1.453125 -0.8125 1.453125 -0.84375 C 1.453125 -0.875 1.453125 -0.898438 1.453125 -0.921875 C 1.441406 -0.984375 1.410156 -1.03125 1.359375 -1.0625 C 1.316406 -1.09375 1.253906 -1.109375 1.171875 -1.109375 L 0.796875 -1.109375 L 0.796875 -0.109375 L 1.4375 -0.109375 C 1.695312 -0.109375 1.851562 -0.226562 1.90625 -0.46875 C 1.925781 -0.539062 1.9375 -0.613281 1.9375 -0.6875 L 2.046875 -0.6875 L 2.046875 0 L 0.109375 0 Z M 0.109375 -0.109375 "/></g></g><g style="fill:#fcfbf9;fill-opacity:1;"><g transform="translate(29.357258, 30.414769)"><path style="stroke:none" d="M 0.140625 -0.109375 L 0.390625 -0.109375 L 0.390625 -2.15625 L 0.140625 -2.15625 L 0.140625 -2.265625 L 0.8125 -2.265625 L 2 -0.484375 L 2 -2.15625 L 1.71875 -2.15625 L 1.71875 -2.265625 L 2.421875 -2.265625 L 2.421875 -2.15625 L 2.15625 -2.15625 L 2.15625 0 L 1.875 0 L 0.546875 -1.96875 L 0.546875 -0.109375 L 0.84375 -0.109375 L 0.84375 0 L 0.140625 0 Z M 0.140625 -0.109375 "/></g></g><g style="fill:#fcfbf9;fill-opacity:1;"><g transform="translate(32.260144, 30.414769)"><path style="stroke:none" d="M 1.9375 -2.109375 C 1.976562 -2.148438 2 -2.203125 2 -2.265625 L 2.125 -2.265625 L 2.125 -1.640625 L 2 -1.640625 C 1.96875 -1.804688 1.882812 -1.9375 1.75 -2.03125 C 1.625 -2.125 1.488281 -2.171875 1.34375 -2.171875 C 0.84375 -2.171875 0.59375 -1.820312 0.59375 -1.125 C 0.601562 -0.84375 0.660156 -0.613281 0.765625 -0.4375 C 0.890625 -0.21875 1.070312 -0.109375 1.3125 -0.109375 C 1.488281 -0.109375 1.640625 -0.140625 1.765625 -0.203125 C 1.890625 -0.273438 1.988281 -0.363281 2.0625 -0.46875 L 2.140625 -0.390625 C 2.097656 -0.304688 2.019531 -0.222656 1.90625 -0.140625 C 1.738281 -0.0234375 1.53125 0.03125 1.28125 0.03125 C 0.9375 0.03125 0.660156 -0.078125 0.453125 -0.296875 C 0.242188 -0.515625 0.140625 -0.789062 0.140625 -1.125 C 0.140625 -1.457031 0.242188 -1.734375 0.453125 -1.953125 C 0.660156 -2.179688 0.945312 -2.296875 1.3125 -2.296875 C 1.507812 -2.296875 1.679688 -2.253906 1.828125 -2.171875 C 1.867188 -2.148438 1.90625 -2.128906 1.9375 -2.109375 Z M 1.9375 -2.109375 "/></g></g><g style="fill:#fcfbf9;fill-opacity:1;"><g transform="translate(34.90721, 30.414769)"><path style="stroke:none" d="M 0.65625 -0.109375 L 0.953125 -0.109375 L 0.953125 -0.875 L 0.203125 -2.15625 L 0.015625 -2.15625 L 0.015625 -2.265625 L 0.96875 -2.265625 L 0.96875 -2.15625 L 0.671875 -2.15625 L 1.265625 -1.078125 L 1.875 -2.15625 L 1.59375 -2.15625 L 1.59375 -2.265625 L 2.25 -2.265625 L 2.25 -2.15625 L 2.03125 -2.15625 L 1.359375 -0.96875 L 1.359375 -0.109375 L 1.65625 -0.109375 L 1.65625 0 L 0.65625 0 Z M 0.65625 -0.109375 "/></g></g></g></svg>